<svg width="164" height="64" viewBox="0 0 164 64" fill="none" xmlns="http://www.w3.org/2000/svg">
<rect width="51.6676" height="52.1118" transform="translate(0 11)" fill="#FF4949"/>
<path d="M41.9071 19.5444C40.8574 19.5414 39.8077 19.5444 38.7581 19.5444C29.2857 19.5429 19.8147 19.5429 10.3423 19.5429C9.8115 19.5429 9.28067 19.5669 8.74984 19.5594C8.5744 19.5579 8.54291 19.6164 8.54291 19.7738C8.54591 29.4637 8.54741 39.155 8.54741 48.8449C8.54741 49.1448 8.5519 49.4447 8.54741 49.7446C8.54741 49.8076 8.5579 49.8496 8.58339 49.8796H18.3962C18.4067 49.8796 18.4172 49.8826 18.4262 49.8826C19.005 49.8856 19.5838 49.8871 20.1626 49.8826C22.2679 49.8631 24.2263 49.2932 26.0662 48.2871C27.0649 47.7413 27.9796 47.083 28.7878 46.2807C30.2304 44.8502 31.295 43.1812 31.9593 41.2559C32.3072 40.2467 32.5216 39.209 32.6176 38.1504C32.6956 37.2986 32.6656 36.4439 32.5531 35.5907C32.4151 34.5395 32.1617 33.5214 31.7779 32.5332C31.3115 31.3366 30.6697 30.2434 29.884 29.2298C28.8853 27.9432 27.6632 26.916 26.2686 26.0928C25.06 25.3775 23.7525 24.9082 22.3759 24.6353C21.4807 24.4583 20.578 24.3638 19.6633 24.3668C17.339 24.3743 15.0148 24.3683 12.6906 24.3623C12.5331 24.3623 12.5226 24.4313 12.5226 24.5558C12.5271 25.4495 12.5316 26.3432 12.5226 27.2354C12.5211 27.4214 12.5796 27.4663 12.7565 27.4663C15.1558 27.4618 17.555 27.4633 19.9542 27.4663C21.3862 27.4693 22.7478 27.7737 24.0464 28.393C25.4934 29.0828 26.678 30.086 27.6467 31.3471C28.5599 32.5362 29.1402 33.8798 29.3996 35.3583C29.6276 36.6509 29.6366 37.9464 29.3426 39.227C28.9333 41.0189 28.104 42.5859 26.804 43.907C25.5954 45.1351 24.1693 45.9823 22.5229 46.4562C21.7191 46.6886 20.8899 46.8161 20.0487 46.8236C19.4429 46.828 18.8371 46.8191 18.2313 46.8281C18.2223 46.8281 18.2148 46.8281 18.2058 46.8281H14.532C14.532 46.8281 14.526 46.828 14.523 46.8265C13.6607 46.8265 12.8 46.8265 11.9378 46.8265C11.6769 46.8265 11.6754 46.8265 11.6754 46.5686C11.6754 38.6962 11.6754 30.8252 11.6754 22.9528C11.6754 22.6619 11.6754 22.6619 11.9603 22.6619C19.6393 22.6619 27.3168 22.6619 34.9958 22.6634C36.4848 22.6634 37.9723 22.6649 39.4614 22.6619L42.5624 19.5579C42.3434 19.5519 42.1245 19.5459 41.9071 19.5444Z" fill="#FBFBFB"/>
<path d="M40.0342 23.1462C40.0327 23.6306 40.0342 24.1149 40.0342 24.5993C40.0342 28.7604 40.0342 32.9216 40.0342 37.0827C40.0342 41.7192 40.0342 46.3542 40.0342 50.9907C40.0342 51.472 40.0327 51.472 39.5423 51.472C32.5141 51.472 25.4844 51.472 18.4562 51.472C18.3692 51.472 18.2808 51.4675 18.1938 51.472C18.0543 51.481 18.0063 51.4181 18.0078 51.2831C18.0108 51.0657 18.0123 50.8482 18.0123 50.6308H14.9548C14.9503 51.8799 14.9533 53.1275 14.9458 54.3766C14.9458 54.546 15.0058 54.5775 15.1543 54.567C15.4152 54.5475 15.6776 54.534 15.94 54.534C24.8561 54.5325 33.7722 54.5325 42.6868 54.5325C42.7498 54.5325 42.8113 54.5325 42.8743 54.5355C43.1217 54.552 43.1217 54.552 43.1217 54.2911V37.0842H43.1247C43.1247 31.6365 43.1247 26.1872 43.1247 20.7395C43.1247 20.5116 43.1247 20.2837 43.1247 20.0557L40.0327 23.1477L40.0342 23.1462Z" fill="#FBFBFB"/>
<path d="M28.3725 39.2225C27.7442 38.6902 27.1129 38.1594 26.4831 37.627C25.6823 36.9507 24.8831 36.2715 24.0779 35.5982C23.3011 34.9489 22.5079 34.3221 21.7431 33.6593C21.0264 33.037 20.2796 32.4537 19.5703 31.8209C19.119 31.4175 18.6316 31.0547 18.1683 30.6663C17.36 29.9885 16.5578 29.3017 15.7526 28.6225C15.5336 28.4365 15.3072 28.2596 15.0853 28.0781C15.0568 28.0541 15.0283 28.0212 14.9878 28.0361C14.9353 28.0556 14.9458 28.1021 14.9458 28.1471C14.9488 32.977 14.9518 37.8055 14.9533 42.6354C14.9533 43.778 14.9533 44.9222 14.9518 46.0648H18.0078C18.0108 42.319 18.0108 38.5732 18.0123 34.8259C18.0123 34.766 17.9808 34.6865 18.0483 34.655C18.1188 34.622 18.1788 34.688 18.2283 34.7285C18.7801 35.1873 19.3304 35.6492 19.8807 36.1095C20.6275 36.7348 21.3742 37.3601 22.1195 37.9884C22.6398 38.4278 23.1527 38.8731 23.6745 39.311C24.8141 40.2647 25.9583 41.2124 27.0964 42.1691C27.2133 42.2665 27.2568 42.199 27.3138 42.1211C27.6242 41.7027 27.8506 41.2349 28.0681 40.764C28.2525 40.3666 28.3785 39.9483 28.5134 39.5314C28.5659 39.368 28.4669 39.3005 28.374 39.221L28.3725 39.2225Z" fill="#FBFBFB"/>
<path d="M36.8987 37.9839C36.8987 42.0131 36.8987 46.0438 36.8957 50.073C36.8957 50.1645 36.9677 50.3009 36.8567 50.3444C36.7577 50.3834 36.6993 50.2454 36.6258 50.184C36.032 49.6876 35.4397 49.1883 34.8474 48.6889C34.1366 48.0891 33.4348 47.4758 32.7121 46.891C32.0808 46.3797 31.475 45.8399 30.8467 45.3285C30.7297 45.2341 30.7297 45.1651 30.8137 45.0526C31.3595 44.3104 31.8213 43.5186 32.1992 42.6789C32.2817 42.4944 32.3192 42.487 32.4616 42.6324C32.8365 43.0118 33.2939 43.2922 33.6777 43.6596C33.7092 43.6896 33.7467 43.7225 33.7932 43.7031C33.8517 43.6791 33.8442 43.6221 33.8442 43.5741C33.8457 43.2427 33.8472 42.9113 33.8472 42.5814C33.8472 37.0212 33.8472 31.461 33.8457 25.9008C33.8457 25.5739 33.8457 25.5739 34.1726 25.5739C35.0033 25.5739 35.834 25.5769 36.6648 25.5709C36.8402 25.5709 36.9047 25.6219 36.9047 25.8064C36.9002 29.8671 36.9017 33.9277 36.9017 37.9899H36.8987V37.9839Z" fill="#FBFBFB"/>
<path d="M54.8 39V11H65.52C67.52 11 69.3733 11.3333 71.08 12C72.8133 12.6667 74.3067 13.6267 75.56 14.88C76.84 16.1067 77.8267 17.56 78.52 19.24C79.24 20.92 79.6 22.7867 79.6 24.84V25.24C79.6 27.2667 79.24 29.12 78.52 30.8C77.8 32.48 76.8 33.9333 75.52 35.16C74.24 36.3867 72.7467 37.3333 71.04 38C69.3333 38.6667 67.4933 39 65.52 39H54.8ZM61.2 35.72L58.56 33.04H65C66.5733 33.04 67.96 32.72 69.16 32.08C70.3867 31.4133 71.3333 30.4933 72 29.32C72.6933 28.1467 73.04 26.7867 73.04 25.24V24.84C73.04 23.24 72.7067 21.8533 72.04 20.68C71.3733 19.5067 70.44 18.6 69.24 17.96C68.04 17.2933 66.6267 16.96 65 16.96H58.56L61.2 14.28V35.72ZM78.5259 39L88.3659 11H96.3259L106.126 39H99.5659L91.9259 15.84H92.7659L85.0859 39H78.5259ZM83.1259 32.88L85.1659 27.52H99.6059L101.686 32.88H83.1259ZM110.86 37V13H117.3V37H110.86ZM106.42 16.8V11H121.74V16.8H106.42ZM106.42 39V33.2H121.74V39H106.42ZM129.527 39C128.113 39 126.94 38.5467 126.007 37.64C125.1 36.7067 124.647 35.5333 124.647 34.12V11H131.047V32.2C131.047 32.4133 131.127 32.6 131.287 32.76C131.447 32.92 131.633 33 131.847 33H143.207V39H129.527ZM152.217 23.56H149.697L156.897 11H163.817L154.177 27.64V39H147.737V27.64L138.097 11H145.017L152.217 23.56Z" fill="#0C0092"/>
<rect width="60.0931" height="25" transform="translate(55 39)" fill="#FF4949"/>
<path d="M66.1223 56.9063V45.5219H68.395L74.0531 53.9301L72.9565 54.109V45.5219H75.4994V56.9063H73.2902L67.6639 48.6119L68.6652 48.433V56.9063H66.1223Z" fill="#FBFBFB"/>
<path d="M80.8685 57.0689C80.0738 57.0689 79.3745 56.9008 78.7706 56.5647C78.1772 56.2178 77.711 55.7353 77.372 55.1173C77.0329 54.4993 76.8634 53.7783 76.8634 52.9543V52.7916C76.8634 52.0327 77.0223 51.3496 77.3402 50.7424C77.658 50.1244 78.1031 49.6365 78.6752 49.2787C79.2474 48.9101 79.9149 48.7258 80.6778 48.7258C81.5043 48.7258 82.2036 48.9318 82.7757 49.3438C83.3585 49.745 83.777 50.3142 84.0313 51.0514C84.2962 51.7887 84.3651 52.6561 84.2379 53.6536H78.5799V52.076H82.9823L81.9175 52.8567C82.0022 52.3688 81.9969 51.9622 81.9016 51.6369C81.8168 51.3008 81.6685 51.046 81.4566 50.8725C81.2447 50.6991 80.9904 50.6123 80.6937 50.6123C80.344 50.6123 80.058 50.7099 79.8354 50.9051C79.6235 51.1002 79.4646 51.3605 79.3586 51.6857C79.2633 52.011 79.2156 52.3796 79.2156 52.7916V53.2795C79.2156 53.6265 79.2792 53.9355 79.4063 54.2065C79.5441 54.4667 79.7454 54.6728 80.0103 54.8245C80.2752 54.9655 80.6036 55.036 80.9957 55.036C81.3771 55.036 81.6844 54.9763 81.9175 54.8571C82.1506 54.727 82.3678 54.5535 82.5691 54.3366L83.9201 55.7516C83.5916 56.1961 83.1678 56.5268 82.6486 56.7436C82.1294 56.9605 81.536 57.0689 80.8685 57.0689Z" fill="#FBFBFB"/>
<path d="M86.8677 56.9063L84.9446 48.8884H87.2968L88.6159 55.41L88.1391 55.3938L89.7285 48.8884H92.2396L93.829 55.3938L93.3522 55.41L94.6713 48.8884H97.0236L95.1004 56.9063H92.335L90.5708 49.3926H91.3973L89.6331 56.9063H86.8677Z" fill="#FBFBFB"/>
<path d="M100.649 57.0364C99.9815 57.0364 99.3828 56.9442 98.853 56.7599C98.3233 56.5647 97.8782 56.337 97.518 56.0768L98.5193 54.4342C98.8583 54.6402 99.2027 54.8137 99.5523 54.9547C99.9126 55.0956 100.278 55.1661 100.649 55.1661C100.935 55.1661 101.163 55.1173 101.332 55.0197C101.502 54.9113 101.587 54.7703 101.587 54.5969C101.587 54.4017 101.497 54.2607 101.317 54.174C101.136 54.0764 100.903 53.9951 100.617 53.9301C100.342 53.8542 100.045 53.7728 99.7272 53.6861C99.4093 53.5885 99.1073 53.4584 98.8212 53.2958C98.5458 53.1223 98.318 52.8838 98.1378 52.5802C97.9577 52.2658 97.8676 51.8538 97.8676 51.3442C97.8676 50.5744 98.1484 49.9455 98.71 49.4576C99.2822 48.9697 100.066 48.7258 101.062 48.7258C101.592 48.7258 102.101 48.7963 102.588 48.9372C103.075 49.0673 103.51 49.2571 103.891 49.5064L102.874 51.1328C102.577 50.9484 102.27 50.8075 101.952 50.7099C101.645 50.6123 101.338 50.5635 101.03 50.5635C100.755 50.5635 100.538 50.6178 100.379 50.7262C100.22 50.8238 100.14 50.9593 100.14 51.1328C100.14 51.3171 100.23 51.458 100.411 51.5556C100.601 51.6532 100.84 51.7399 101.126 51.8158C101.422 51.8809 101.73 51.9622 102.048 52.0598C102.376 52.1574 102.683 52.2983 102.969 52.4826C103.266 52.6561 103.505 52.9 103.685 53.2145C103.875 53.5181 103.971 53.9246 103.971 54.4342C103.971 54.9438 103.828 55.3938 103.542 55.7841C103.256 56.1744 102.863 56.4834 102.365 56.7111C101.867 56.9279 101.295 57.0364 100.649 57.0364Z" fill="#FBFBFB"/>
</svg>
