<svg width="177" height="61" viewBox="0 0 177 61" fill="none" xmlns="http://www.w3.org/2000/svg">
<rect width="39.2407" height="39.578" transform="translate(0 2.02964)" fill="#FF4949"/>
<path d="M31.3629 8.71321C30.5773 8.71097 29.7918 8.71321 29.0062 8.71321C21.9172 8.71209 14.8292 8.71209 7.74012 8.71209C7.34285 8.71209 6.94558 8.73005 6.54831 8.72443C6.41701 8.72331 6.39345 8.76708 6.39345 8.88491C6.39569 16.1367 6.39681 23.3896 6.39681 30.6414C6.39681 30.8659 6.40018 31.0903 6.39681 31.3148C6.39681 31.3619 6.40467 31.3933 6.42375 31.4158H13.7676C13.7754 31.4158 13.7833 31.418 13.79 31.418C14.2232 31.4203 14.6564 31.4214 15.0896 31.418C16.6652 31.4034 18.1308 30.977 19.5077 30.224C20.2551 29.8155 20.9397 29.3228 21.5446 28.7224C22.6242 27.6518 23.4209 26.4028 23.9181 24.9619C24.1784 24.2066 24.3389 23.43 24.4107 22.6378C24.4691 22.0003 24.4466 21.3607 24.3625 20.7221C24.2592 19.9354 24.0696 19.1735 23.7823 18.4339C23.4333 17.5384 22.953 16.7203 22.3649 15.9616C21.6175 14.9988 20.7029 14.2301 19.6592 13.614C18.7547 13.0787 17.7762 12.7274 16.746 12.5232C16.076 12.3907 15.4004 12.32 14.7159 12.3223C12.9764 12.3279 11.237 12.3234 9.49752 12.3189C9.37968 12.3189 9.37183 12.3705 9.37183 12.4637C9.37519 13.1325 9.37856 13.8014 9.37183 14.4691C9.3707 14.6082 9.41447 14.6419 9.54689 14.6419C11.3425 14.6385 13.138 14.6397 14.9336 14.6419C16.0053 14.6442 17.0243 14.872 17.9961 15.3354C19.0791 15.8517 19.9656 16.6024 20.6906 17.5462C21.374 18.4362 21.8083 19.4417 22.0024 20.5482C22.173 21.5155 22.1798 22.4851 21.9598 23.4435C21.6534 24.7846 21.0328 25.9573 20.0599 26.946C19.1554 27.8651 18.0881 28.4991 16.8559 28.8537C16.2544 29.0277 15.6338 29.1231 15.0043 29.1287C14.5509 29.1321 14.0975 29.1253 13.6441 29.1321C13.6374 29.1321 13.6318 29.1321 13.6251 29.1321H10.8756C10.8756 29.1321 10.8711 29.1321 10.8689 29.1309C10.2236 29.1309 9.57944 29.1309 8.93416 29.1309C8.73889 29.1309 8.73777 29.1309 8.73777 28.9379C8.73777 23.0462 8.73777 17.1557 8.73777 11.264C8.73777 11.0463 8.73777 11.0463 8.95099 11.0463C14.6979 11.0463 20.4437 11.0463 26.1906 11.0474C27.3049 11.0474 28.4182 11.0486 29.5326 11.0463L31.8533 8.72331C31.6895 8.71882 31.5256 8.71433 31.3629 8.71321Z" fill="#FBFBFB"/>
<path d="M29.9613 11.4088C29.9601 11.7713 29.9613 12.1337 29.9613 12.4962C29.9613 15.6104 29.9613 18.7246 29.9613 21.8387C29.9613 25.3086 29.9613 28.7774 29.9613 32.2473C29.9613 32.6076 29.9601 32.6076 29.5932 32.6076C24.3333 32.6076 19.0723 32.6076 13.8125 32.6076C13.7474 32.6076 13.6812 32.6042 13.6161 32.6076C13.5117 32.6143 13.4758 32.5672 13.4769 32.4662C13.4792 32.3035 13.4803 32.1407 13.4803 31.978H11.1921C11.1887 32.9128 11.191 33.8465 11.1853 34.7813C11.1853 34.9081 11.2302 34.9317 11.3413 34.9238C11.5366 34.9093 11.733 34.8992 11.9294 34.8992C18.6021 34.898 25.2749 34.898 31.9465 34.898C31.9936 34.898 32.0396 34.898 32.0867 34.9003C32.2719 34.9126 32.2719 34.9126 32.2719 34.7174V21.8399H32.2742C32.2742 17.7628 32.2742 13.6847 32.2742 9.60762C32.2742 9.43704 32.2742 9.26646 32.2742 9.09589L29.9601 11.4099L29.9613 11.4088Z" fill="#FBFBFB"/>
<path d="M21.2337 23.4401C20.7635 23.0418 20.2911 22.6445 19.8197 22.2461C19.2205 21.74 18.6223 21.2316 18.0197 20.7277C17.4384 20.2418 16.8447 19.7727 16.2724 19.2767C15.736 18.811 15.1771 18.3744 14.6463 17.9008C14.3085 17.599 13.9438 17.3274 13.597 17.0367C12.9921 16.5295 12.3917 16.0155 11.7891 15.5071C11.6253 15.368 11.4558 15.2356 11.2897 15.0998C11.2684 15.0818 11.2471 15.0571 11.2168 15.0684C11.1775 15.0829 11.1853 15.1177 11.1853 15.1514C11.1876 18.7661 11.1898 22.3796 11.191 25.9943C11.191 26.8495 11.191 27.7057 11.1898 28.5608H13.4769C13.4792 25.7575 13.4792 22.9542 13.4803 20.1498C13.4803 20.1049 13.4567 20.0454 13.5072 20.0218C13.56 19.9972 13.6049 20.0465 13.6419 20.0768C14.0549 20.4202 14.4667 20.7659 14.8786 21.1104C15.4375 21.5784 15.9963 22.0463 16.5541 22.5166C16.9435 22.8454 17.3273 23.1787 17.7178 23.5064C18.5707 24.2201 19.427 24.9293 20.2787 25.6453C20.3663 25.7183 20.3988 25.6678 20.4414 25.6094C20.6737 25.2963 20.8432 24.9462 21.0059 24.5938C21.144 24.2964 21.2382 23.9833 21.3392 23.6713C21.3785 23.549 21.3044 23.4985 21.2349 23.439L21.2337 23.4401Z" fill="#FBFBFB"/>
<path d="M27.6147 22.5132C27.6147 25.5286 27.6147 28.5451 27.6124 31.5605C27.6124 31.629 27.6663 31.7311 27.5833 31.7637C27.5092 31.7928 27.4654 31.6896 27.4104 31.6436C26.966 31.2721 26.5228 30.8984 26.0795 30.5247C25.5476 30.0758 25.0224 29.6169 24.4814 29.1792C24.009 28.7965 23.5556 28.3925 23.0854 28.0098C22.9979 27.9391 22.9979 27.8875 23.0607 27.8033C23.4692 27.2478 23.8148 26.6553 24.0976 26.0269C24.1594 25.8888 24.1874 25.8832 24.294 25.9921C24.5746 26.276 24.9169 26.4859 25.2042 26.7608C25.2277 26.7832 25.2558 26.8079 25.2906 26.7933C25.3343 26.7754 25.3287 26.7327 25.3287 26.6968C25.3298 26.4488 25.331 26.2008 25.331 25.9539C25.331 21.7927 25.331 17.6315 25.3298 13.4703C25.3298 13.2257 25.3298 13.2257 25.5745 13.2257C26.1962 13.2257 26.8179 13.2279 27.4396 13.2234C27.5709 13.2234 27.6192 13.2616 27.6192 13.3996C27.6158 16.4386 27.6169 19.4776 27.6169 22.5177H27.6147V22.5132Z" fill="#FBFBFB"/>
<path d="M46.6818 41.5266V1.70657H61.7761C64.5922 1.70657 67.2018 2.18062 69.6049 3.12872C72.0455 4.07681 74.1482 5.44207 75.9129 7.22449C77.7153 8.96899 79.1045 11.0358 80.0808 13.425C81.0946 15.8142 81.6015 18.4689 81.6015 21.3891V21.9579C81.6015 24.8401 81.0946 27.4758 80.0808 29.865C79.067 32.2542 77.6589 34.3211 75.8566 36.0656C74.0543 37.8101 71.9516 39.1564 69.5485 40.1045C67.1455 41.0526 64.5547 41.5266 61.7761 41.5266H46.6818ZM55.6933 36.862L51.976 33.0506H61.0439C63.2592 33.0506 65.2117 32.5956 66.9014 31.6854C68.6286 30.7373 69.9616 29.4289 70.9003 27.7603C71.8765 26.0916 72.3647 24.1575 72.3647 21.9579V21.3891C72.3647 19.1136 71.8953 17.1416 70.9566 15.4729C70.0179 13.8043 68.7037 12.5149 67.0141 11.6047C65.3244 10.6566 63.3343 10.1826 61.0439 10.1826H51.976L55.6933 6.37121V36.862Z" fill="#0C0092"/>
<path d="M102.497 41.7407L102.319 33.2782L101.305 30.0357V24.0627C101.305 22.6595 100.874 21.6735 100.01 21.1046C99.1464 20.5358 98.0951 20.2513 96.856 20.2513C95.5793 20.2513 94.2088 20.5168 92.7445 21.0477C91.3176 21.5407 90.0598 22.2234 88.9709 23.0956L85.2536 17.4639C86.4927 16.1366 88.2011 15.0558 90.3789 14.2214C92.5943 13.3492 94.941 12.9131 97.4192 12.9131C99.8223 12.9131 101.925 13.3302 103.727 14.1646C105.567 14.9989 107.013 16.2124 108.064 17.8052C109.115 19.3601 109.641 21.2753 109.641 23.5507V32.7093C109.641 34.1884 109.641 35.6674 109.641 37.1464C109.679 38.5875 109.735 40.2617 109.81 41.7407H102.497ZM94.7157 42.0955C91.6368 42.0955 89.1586 41.318 87.2812 39.7632C85.4414 38.2083 84.5214 36.2173 84.5214 33.7902C84.5214 32.0836 84.9532 30.5856 85.8168 29.2962C86.718 28.0068 88.0134 27.0018 89.7031 26.2812C91.4303 25.5228 93.5142 25.1435 95.9548 25.1435C99.3717 25.1435 101.887 25.883 103.502 27.3621C105.154 28.8411 105.98 30.8131 105.98 33.2782H103.502C103.502 36.0845 102.789 38.2652 101.362 39.82C99.9349 41.337 97.7196 42.0955 94.7157 42.0955ZM97.1376 35.9518C98.3767 35.9518 99.3905 35.7053 100.179 35.2123C100.967 34.7193 101.362 34.0746 101.362 33.2782C101.362 32.5197 100.967 31.894 100.179 31.4009C99.3905 30.9079 98.3767 30.6614 97.1376 30.6614C95.9361 30.6614 94.941 30.9079 94.1525 31.4009C93.364 31.894 92.9697 32.5197 92.9697 33.2782C92.9697 34.0746 93.364 34.7193 94.1525 35.2123C94.941 35.7053 95.9361 35.9518 97.1376 35.9518Z" fill="#0C0092"/>
<path d="M118.229 41.7407V16.8382L122.003 20.6495H113.555V13.4819H126.678V41.7407H118.229ZM117.835 8.4191V0H127.185V8.4191H117.835Z" fill="#0C0092"/>
<path d="M142.417 41.7407C139.639 41.7407 137.423 40.8061 135.771 39.365C134.156 37.8859 133.349 35.8191 133.349 33.1644V3.35626L137.123 7.16761H129.238V0H141.798V33.3351C141.798 33.6385 141.91 33.9039 142.135 34.1315C142.361 34.359 142.624 34.4728 142.924 34.4728H146.134V41.7407H142.417Z" fill="#0C0092"/>
<path d="M148.059 52.9038V45.7362H154.705C154.893 45.7362 155.062 45.6793 155.212 45.5655C155.4 45.4897 155.531 45.3569 155.607 45.1673L160.676 34.5297L167.04 13.4819H176.446L164.055 45.5655C163.642 46.6653 163.079 47.7841 162.365 48.9218C161.689 50.0595 160.713 51.0076 159.436 51.7661C158.16 52.5245 156.414 52.9038 154.199 52.9038H148.059ZM158.31 45.1104L145.919 13.4819H155.325L163.323 36.4069L158.31 45.1104Z" fill="#0C0092"/>
<rect width="45.0064" height="18.4171" transform="translate(102.497 41.7407)" fill="#FF4949"/>
<path d="M110.827 55.1515V46.6253H112.529L116.767 52.9225L115.945 53.0565V46.6253H117.85V55.1515H116.195L111.982 48.9396L112.731 48.8056V55.1515H110.827Z" fill="#FBFBFB"/>
<path d="M121.871 55.2733C121.276 55.2733 120.752 55.1475 120.3 54.8957C119.855 54.6359 119.506 54.2745 119.252 53.8117C118.998 53.3488 118.871 52.8088 118.871 52.1917V52.0699C118.871 51.5015 118.99 50.9899 119.228 50.5352C119.467 50.0723 119.8 49.7069 120.228 49.4389C120.657 49.1629 121.157 49.0248 121.728 49.0248C122.347 49.0248 122.871 49.1791 123.299 49.4877C123.736 49.7881 124.049 50.2144 124.24 50.7666C124.438 51.3188 124.49 51.9684 124.395 52.7155H120.157V51.534H123.454L122.657 52.1186C122.72 51.7532 122.716 51.4487 122.645 51.2051C122.581 50.9534 122.47 50.7625 122.311 50.6326C122.153 50.5027 121.962 50.4377 121.74 50.4377C121.478 50.4377 121.264 50.5108 121.097 50.657C120.939 50.8031 120.82 50.998 120.74 51.2416C120.669 51.4852 120.633 51.7613 120.633 52.0699V52.4353C120.633 52.6952 120.681 52.9266 120.776 53.1296C120.879 53.3245 121.03 53.4788 121.228 53.5924C121.427 53.698 121.673 53.7508 121.966 53.7508C122.252 53.7508 122.482 53.7061 122.657 53.6168C122.831 53.5194 122.994 53.3894 123.145 53.227L124.156 54.2867C123.91 54.6197 123.593 54.8673 123.204 55.0297C122.815 55.1921 122.371 55.2733 121.871 55.2733Z" fill="#FBFBFB"/>
<path d="M126.364 55.1515L124.924 49.1466H126.685L127.673 54.0309L127.316 54.0188L128.507 49.1466H130.387L131.578 54.0188L131.221 54.0309L132.209 49.1466H133.97L132.53 55.1515H130.459L129.138 49.5242H129.756L128.435 55.1515H126.364Z" fill="#FBFBFB"/>
<path d="M136.685 55.249C136.186 55.249 135.737 55.18 135.34 55.0419C134.944 54.8957 134.61 54.7252 134.341 54.5303L135.09 53.3001C135.344 53.4544 135.602 53.5843 135.864 53.6899C136.134 53.7955 136.408 53.8482 136.685 53.8482C136.9 53.8482 137.07 53.8117 137.197 53.7386C137.324 53.6574 137.388 53.5518 137.388 53.4219C137.388 53.2758 137.32 53.1702 137.185 53.1052C137.051 53.0322 136.876 52.9712 136.662 52.9225C136.455 52.8657 136.233 52.8048 135.995 52.7398C135.757 52.6667 135.531 52.5693 135.317 52.4475C135.11 52.3176 134.94 52.1389 134.805 51.9116C134.67 51.6761 134.602 51.3675 134.602 50.9859C134.602 50.4093 134.813 49.9383 135.233 49.5729C135.662 49.2075 136.249 49.0248 136.995 49.0248C137.392 49.0248 137.773 49.0776 138.138 49.1832C138.503 49.2806 138.828 49.4227 139.114 49.6095L138.352 50.8275C138.13 50.6895 137.9 50.5839 137.662 50.5108C137.431 50.4377 137.201 50.4012 136.971 50.4012C136.765 50.4012 136.602 50.4418 136.483 50.523C136.364 50.5961 136.305 50.6976 136.305 50.8275C136.305 50.9656 136.372 51.0711 136.507 51.1442C136.65 51.2173 136.828 51.2822 137.043 51.3391C137.265 51.3878 137.495 51.4487 137.733 51.5218C137.979 51.5949 138.209 51.7004 138.423 51.8385C138.646 51.9684 138.824 52.1511 138.959 52.3866C139.102 52.614 139.173 52.9185 139.173 53.3001C139.173 53.6818 139.066 54.0188 138.852 54.3111C138.638 54.6034 138.344 54.8348 137.971 55.0054C137.598 55.1678 137.17 55.249 136.685 55.249Z" fill="#FBFBFB"/>
</svg>
