<svg width="206" height="64" viewBox="0 0 206 64" fill="none" xmlns="http://www.w3.org/2000/svg">
<path d="M60.2223 0.00270662C58.3276 -0.00270662 56.433 0.00270662 54.5384 0.00270662C37.4407 0 20.3456 0 3.24794 0C2.2898 0 1.33166 0.0433059 0.373513 0.0297728C0.056839 0.0270662 0 0.132624 0 0.416819C0.00541324 17.907 0.00811985 35.3999 0.00811985 52.89C0.00811985 53.4314 0.0162397 53.9727 0.00811985 54.514C0.00811985 54.6277 0.0270662 54.7035 0.0730787 54.7576H17.7852C17.8041 54.7576 17.8231 54.763 17.8393 54.763C18.8841 54.7684 19.9288 54.7711 20.9736 54.763C24.7737 54.7278 28.3085 53.6993 31.6295 51.8832C33.4321 50.898 35.0832 49.7098 36.5421 48.2617C39.1458 45.6796 41.0675 42.6671 42.2666 39.1918C42.8945 37.3703 43.2815 35.4973 43.4548 33.5864C43.5955 32.0491 43.5414 30.5063 43.3384 28.9662C43.0894 27.0689 42.6319 25.2311 41.939 23.4474C41.0973 21.2876 39.9389 19.3144 38.5206 17.4848C36.718 15.1625 34.5121 13.3084 31.9949 11.8225C29.8134 10.5315 27.4532 9.68428 24.9686 9.19168C23.3527 8.8723 21.7233 8.70178 20.0723 8.70719C15.877 8.72073 11.6818 8.7099 7.48651 8.69907C7.20231 8.69907 7.18337 8.82358 7.18337 9.04823C7.19149 10.6614 7.1996 12.2745 7.18337 13.885C7.18066 14.2206 7.28622 14.3018 7.6056 14.3018C11.9362 14.2937 16.2668 14.2964 20.5974 14.3018C23.1822 14.3072 25.6398 14.8566 27.9837 15.9745C30.5956 17.2195 32.7338 19.0302 34.4823 21.3065C36.1306 23.4529 37.1781 25.878 37.6464 28.5467C38.0578 30.8798 38.074 33.2183 37.5435 35.5298C36.8046 38.7642 35.3078 41.5926 32.9612 43.9771C30.7797 46.1939 28.2057 47.7231 25.2338 48.5784C23.7831 48.9979 22.2863 49.228 20.7679 49.2415C19.6744 49.2496 18.5809 49.2334 17.4875 49.2496C17.4712 49.2496 17.4577 49.2496 17.4414 49.2496H10.8102C10.8102 49.2496 10.7994 49.2496 10.794 49.2469C9.23769 49.2469 7.68409 49.2469 6.12778 49.2469C5.65683 49.2469 5.65413 49.2469 5.65413 48.7814C5.65413 34.5716 5.65413 20.3646 5.65413 6.15485C5.65413 5.62977 5.65413 5.62977 6.16838 5.62977C20.029 5.62977 33.8869 5.62977 47.7475 5.63247C50.4351 5.63247 53.1201 5.63518 55.8078 5.62977L61.405 0.0270662C61.0099 0.0162397 60.6147 0.00541324 60.2223 0.00270662Z" fill="#0C0092"/>
<path d="M56.8417 6.50399C56.839 7.37823 56.8417 8.25247 56.8417 9.12671C56.8417 16.6376 56.8417 24.1484 56.8417 31.6593C56.8417 40.0282 56.8417 48.3943 56.8417 56.7632C56.8417 57.632 56.839 57.632 55.9539 57.632C43.268 57.632 30.5794 57.632 17.8935 57.632C17.7365 57.632 17.5768 57.6239 17.4198 57.632C17.1681 57.6483 17.0815 57.5346 17.0842 57.291C17.0896 56.8985 17.0923 56.5061 17.0923 56.1136H11.5735C11.5654 58.3682 11.5708 60.6201 11.5573 62.8747C11.5573 63.1806 11.6655 63.2374 11.9335 63.2185C12.4044 63.1833 12.8781 63.1589 13.3518 63.1589C29.4453 63.1562 45.5389 63.1562 61.6297 63.1562C61.7434 63.1562 61.8544 63.1562 61.968 63.1616C62.4146 63.1914 62.4146 63.1914 62.4146 62.7205V31.662H62.42C62.42 21.8289 62.42 11.993 62.42 2.15987C62.42 1.74846 62.42 1.33706 62.42 0.925652L56.839 6.5067L56.8417 6.50399Z" fill="#FF4949"/>
<path d="M35.7923 35.5217C34.6583 34.5608 33.5188 33.6027 32.382 32.6418C30.9367 31.4211 29.494 30.195 28.0406 28.9798C26.6386 27.8078 25.2067 26.6764 23.8264 25.4801C22.5326 24.3568 21.1847 23.304 19.9045 22.1618C19.0898 21.4337 18.2101 20.7787 17.3738 20.0777C15.9149 18.8543 14.4669 17.6147 13.0134 16.3886C12.6183 16.0529 12.2096 15.7336 11.809 15.4061C11.7576 15.3628 11.7061 15.3032 11.6331 15.3303C11.5383 15.3655 11.5573 15.4494 11.5573 15.5306C11.5627 24.2486 11.5681 32.9639 11.5708 41.6819C11.5708 43.7444 11.5708 45.8095 11.5681 47.872H17.0842C17.0896 41.1108 17.0896 34.3497 17.0923 27.5858C17.0923 27.4776 17.0355 27.3341 17.1573 27.2773C17.2845 27.2177 17.3927 27.3368 17.4821 27.4099C18.4781 28.2381 19.4714 29.0718 20.4648 29.9027C21.8126 31.0314 23.1605 32.16 24.5057 33.2941C25.4449 34.0871 26.3706 34.891 27.3125 35.6813C29.3695 37.4028 31.4347 39.1133 33.489 40.8402C33.7001 41.0161 33.7786 40.8943 33.8815 40.7535C34.4417 39.9984 34.8504 39.1539 35.2429 38.3041C35.5758 37.5868 35.8032 36.8317 36.0468 36.0792C36.1415 35.7842 35.9629 35.6624 35.795 35.5189L35.7923 35.5217Z" fill="#FF4949"/>
<path d="M51.1822 33.286C51.1822 40.5587 51.1822 47.8341 51.1768 55.1067C51.1768 55.2718 51.3067 55.5182 51.1064 55.5966C50.9277 55.667 50.8222 55.418 50.6896 55.307C49.6177 54.4111 48.5486 53.5098 47.4795 52.6085C46.1966 51.5259 44.9299 50.4189 43.6253 49.3633C42.4858 48.4403 41.3923 47.466 40.2583 46.543C40.0471 46.3725 40.0471 46.248 40.1987 46.045C41.1839 44.7052 42.0176 43.2761 42.6996 41.7604C42.8485 41.4275 42.9162 41.414 43.1733 41.6765C43.8499 42.3613 44.6755 42.8674 45.3683 43.5305C45.4252 43.5847 45.4929 43.6442 45.5768 43.609C45.6823 43.5657 45.6688 43.4629 45.6688 43.3763C45.6715 42.7781 45.6742 42.1799 45.6742 41.5845C45.6742 31.5483 45.6742 21.5122 45.6715 11.4761C45.6715 10.886 45.6715 10.886 46.2615 10.886C47.761 10.886 49.2605 10.8914 50.7599 10.8806C51.0766 10.8806 51.193 10.9726 51.193 11.3055C51.1849 18.6351 51.1876 25.9646 51.1876 33.2968H51.1822V33.286Z" fill="#FF4949"/>
<path d="M67.1349 36.925V37.175H67.3849H80.3633C82.98 37.175 85.4047 36.7405 87.635 35.8686L87.6368 35.8678C89.8987 34.9627 91.8763 33.7083 93.5669 32.104L93.5688 32.1021C95.2604 30.462 96.5736 28.5254 97.5083 26.2948C98.4444 24.0606 98.9106 21.6035 98.9106 18.9266V18.3593C98.9106 15.7507 98.4442 13.3616 97.5075 11.1956C96.5727 8.99954 95.2591 7.11438 93.5669 5.54299C91.9105 3.93752 89.9492 2.7169 87.686 1.88064C85.456 1.00915 83.0141 0.57505 80.3633 0.57505H67.3849H67.1349V0.82505V36.925ZM73.1667 31.621V6.12905H79.9378C82.4553 6.12905 84.6646 6.65424 86.573 7.69714L86.573 7.69719L86.5776 7.69962C88.5236 8.71034 90.0308 10.1223 91.1053 11.9371L91.1053 11.9371L91.1071 11.9401C92.2143 13.7517 92.7725 15.8883 92.7725 18.3593V18.9266C92.7725 21.4324 92.2141 23.6401 91.1041 25.5572L91.1024 25.5602C90.0264 27.4784 88.5181 28.9749 86.5732 30.0528C84.6283 31.0964 82.4185 31.621 79.9378 31.621H73.1667ZM97.9664 36.8353L97.8358 37.175H98.1998H103.891H104.064L104.125 37.013L107.574 27.8406H123.362L126.795 37.0127L126.855 37.175H127.029H132.72H133.003H133.084H133.253H151.603H151.853V36.925V32.0257V31.7757H151.603H145.471V5.97433H151.603H151.853V5.72433V0.82505V0.57505H151.603H133.253H133.003V0.82505V5.72433V5.97433H133.253H139.386V31.7757H133.253H133.003V32.0257V36.925V36.9637L132.953 36.8353L119.071 0.735317L119.009 0.57505H118.838H112.082H111.911L111.849 0.735317L97.9664 36.8353ZM115.485 6.7969L121.456 22.7507H109.487L115.485 6.7969ZM157.424 35.4515L157.424 35.4516L157.43 35.4569C158.65 36.6044 160.167 37.175 161.963 37.175H178.771H179.021V36.925V31.871V31.621H178.771H163.824C163.212 31.621 162.708 31.4204 162.296 31.0211C161.885 30.6222 161.681 30.1372 161.681 29.5503V0.82505V0.57505H161.431H155.899H155.649V0.82505V31.0459C155.649 32.7932 156.24 34.2675 157.424 35.4515ZM198.291 0.690106L188.339 16.2106L178.34 0.689656L178.266 0.57505H178.129H172.119H171.662L171.908 0.959983L185.326 21.8879V36.925V37.175H185.576H191.108H191.358V36.925V21.8879L204.775 0.959983L205.022 0.57505H204.565H198.501H198.364L198.291 0.690106Z" fill="#0C0092" stroke="#0C0092" stroke-width="0.5"/>
<path d="M67.3849 63.6949V42.34H70.4224L82.7322 60.0646L81.3573 60.3087V42.34H84.6825V63.6949H81.677L69.4312 46.0924L70.7102 45.8788V63.6949H67.3849Z" fill="#FF4949"/>
<path d="M94.7329 64C93.1982 64 91.8447 63.6848 90.6723 63.0543C89.4999 62.4035 88.5834 61.5086 87.9226 60.3697C87.2618 59.2307 86.9314 57.9088 86.9314 56.4038V56.0987C86.9314 54.675 87.2298 53.4039 87.8267 52.2853C88.4448 51.1667 89.2974 50.282 90.3845 49.6312C91.493 48.96 92.7719 48.6245 94.2213 48.6245C95.7561 48.6245 97.0563 48.9804 98.1221 49.6922C99.1879 50.404 99.9766 51.4108 100.488 52.7124C101 53.9937 101.138 55.4987 100.904 57.2274H89.1695V54.9699H99.2731L97.8663 56.1597C98.0155 55.0818 97.9516 54.1767 97.6745 53.4446C97.3974 52.6921 96.9604 52.1124 96.3636 51.7057C95.788 51.2989 95.0846 51.0955 94.2533 51.0955C93.3581 51.0955 92.5907 51.3091 91.9512 51.7362C91.3331 52.1633 90.8535 52.7531 90.5124 53.5056C90.1927 54.2378 90.0328 55.1021 90.0328 56.0987V56.5563C90.0328 57.4715 90.2247 58.2952 90.6084 59.0274C90.992 59.7595 91.5462 60.329 92.271 60.7357C92.9957 61.1425 93.859 61.3459 94.8608 61.3459C95.6708 61.3459 96.3636 61.2442 96.9391 61.0408C97.5359 60.8374 98.0582 60.5425 98.5058 60.1561L100.264 61.956C99.6675 62.6272 98.8895 63.1356 97.9303 63.4814C96.9711 63.8271 95.9053 64 94.7329 64Z" fill="#FF4949"/>
<path d="M105.66 63.6949L101.375 48.9295H104.509L107.93 61.773H107.29L111.031 48.9295H114.324L118.065 61.7425H117.426L120.879 48.9295H123.98L119.696 63.6949H116.083L112.15 49.7227H113.205L109.273 63.6949H105.66Z" fill="#FF4949"/>
<path d="M129.964 63.9695C128.77 63.9695 127.662 63.8068 126.639 63.4814C125.637 63.1356 124.805 62.6984 124.145 62.1696L125.52 60.1256C126.138 60.5527 126.83 60.9086 127.598 61.1934C128.365 61.4781 129.154 61.6205 129.964 61.6205C130.816 61.6205 131.499 61.4476 132.01 61.1018C132.543 60.7357 132.81 60.2578 132.81 59.668C132.81 59.1392 132.618 58.7426 132.234 58.4782C131.85 58.1935 131.349 57.9698 130.731 57.8071C130.134 57.624 129.484 57.4512 128.781 57.2885C128.099 57.1258 127.449 56.902 126.83 56.6173C126.234 56.3122 125.733 55.8953 125.328 55.3665C124.944 54.8174 124.752 54.0852 124.752 53.17C124.752 51.8277 125.274 50.7396 126.319 49.9058C127.385 49.0516 128.802 48.6245 130.571 48.6245C131.573 48.6245 132.511 48.7567 133.385 49.0211C134.28 49.2854 135.069 49.6515 135.751 50.1193L134.344 52.1328C133.811 51.7667 133.215 51.482 132.554 51.2786C131.914 51.0549 131.243 50.943 130.539 50.943C129.708 50.943 129.037 51.126 128.525 51.4921C128.013 51.8582 127.758 52.326 127.758 52.8954C127.758 53.4039 127.95 53.8005 128.333 54.0852C128.738 54.37 129.25 54.5937 129.868 54.7564C130.507 54.9191 131.168 55.092 131.85 55.275C132.554 55.458 133.214 55.7021 133.833 56.0072C134.451 56.3122 134.962 56.7393 135.367 57.2885C135.772 57.8172 135.975 58.5494 135.975 59.485C135.975 60.3595 135.708 61.1323 135.176 61.8035C134.664 62.4746 133.961 63.0034 133.065 63.3899C132.17 63.7763 131.136 63.9695 129.964 63.9695Z" fill="#FF4949"/>
</svg>
