<svg width="339" height="104" viewBox="0 0 339 104" fill="none" xmlns="http://www.w3.org/2000/svg">
<path d="M98.5359 0.0044524C95.4358 -0.0044524 92.3358 0.0044524 89.2359 0.0044524C61.2606 0 33.2895 0 5.31429 0C3.74658 0 2.17887 0.0712383 0.611143 0.0489764C0.0930001 0.044524 0 0.218167 0 0.685669C0.00885716 29.4571 0.0132857 58.233 0.0132857 87.0042C0.0132857 87.8948 0.0265714 88.7853 0.0132857 89.6757C0.0132857 89.8627 0.0442858 89.9874 0.119572 90.0764H29.1002C29.1311 90.0764 29.1622 90.0853 29.1887 90.0853C30.8982 90.0942 32.6075 90.0986 34.3171 90.0853C40.5348 90.0274 46.3184 88.3355 51.7523 85.348C54.7017 83.7274 57.4032 81.7728 59.7903 79.3907C64.0504 75.1431 67.1947 70.1875 69.1567 64.4706C70.1841 61.4743 70.8173 58.3932 71.1008 55.2497C71.3311 52.7209 71.2425 50.183 70.9104 47.6495C70.503 44.5284 69.7544 41.5052 68.6207 38.571C67.2435 35.0182 65.3481 31.7723 63.0275 28.7626C60.0781 24.9424 56.4688 21.8924 52.3501 19.4481C48.7808 17.3244 44.919 15.9307 40.8537 15.1203C38.2097 14.595 35.5437 14.3145 32.8423 14.3234C25.978 14.3456 19.1138 14.3278 12.2494 14.31C11.7844 14.31 11.7534 14.5148 11.7534 14.8844C11.7667 17.538 11.78 20.1916 11.7534 22.8409C11.749 23.3929 11.9217 23.5265 12.4443 23.5265C19.53 23.5132 26.6158 23.5176 33.7015 23.5265C37.9308 23.5354 41.9519 24.4392 45.787 26.2781C50.0606 28.3261 53.5591 31.3047 56.42 35.0493C59.117 38.5801 60.8309 42.5694 61.5971 46.9594C62.2703 50.7974 62.2968 54.6442 61.4288 58.4466C60.2198 63.7672 57.7707 68.42 53.9312 72.3425C50.3618 75.9891 46.1502 78.5047 41.2876 79.9116C38.914 80.6017 36.4649 80.9802 33.9805 81.0024C32.1913 81.0158 30.4021 80.9891 28.6131 81.0158C28.5864 81.0158 28.5643 81.0158 28.5377 81.0158H17.6877C17.6877 81.0158 17.67 81.0158 17.6612 81.0113C15.1147 81.0113 12.5727 81.0113 10.0263 81.0113C9.25572 81.0113 9.2513 81.0113 9.2513 80.2456C9.2513 56.8704 9.2513 33.4998 9.2513 10.1247C9.2513 9.26099 9.2513 9.26099 10.0927 9.26099C32.7715 9.26099 55.4458 9.26099 78.1246 9.26543C82.522 9.26543 86.9152 9.26989 91.3129 9.26099L100.471 0.044524C99.8245 0.0267144 99.1779 0.0089048 98.5359 0.0044524Z" fill="white"/>
<path d="M93.0045 10.6991C93.0001 12.1372 93.0045 13.5753 93.0045 15.0135C93.0045 27.3689 93.0045 39.7242 93.0045 52.0797C93.0045 65.8465 93.0045 79.6088 93.0045 93.3756C93.0045 94.8048 93.0001 94.8048 91.5519 94.8048C70.7952 94.8048 50.0341 94.8048 29.2774 94.8048C29.0205 94.8048 28.7592 94.7915 28.5023 94.8048C28.0905 94.8316 27.9488 94.6446 27.9532 94.2439C27.962 93.5982 27.9665 92.9527 27.9665 92.3071H18.9366C18.9233 96.0159 18.9322 99.7203 18.9101 103.429C18.9101 103.932 19.0871 104.026 19.5256 103.995C20.2961 103.937 21.0712 103.897 21.8462 103.897C48.1785 103.892 74.5109 103.892 100.839 103.892C101.025 103.892 101.206 103.892 101.392 103.901C102.123 103.95 102.123 103.95 102.123 103.175V52.0841H102.132C102.132 35.9086 102.132 19.7285 102.132 3.55299C102.132 2.87622 102.132 2.19947 102.132 1.5227L93.0001 10.7035L93.0045 10.6991Z" fill="white"/>
<path d="M58.5634 58.4333C56.708 56.8526 54.8435 55.2766 52.9835 53.6959C50.6187 51.6878 48.2582 49.6709 45.8801 47.6719C43.5861 45.7439 41.2433 43.8828 38.9848 41.9148C36.8679 40.067 34.6625 38.3352 32.5678 36.4562C31.2348 35.2585 29.7954 34.181 28.4271 33.0279C26.04 31.0154 23.6708 28.9762 21.2926 26.9593C20.6461 26.4071 19.9774 25.8818 19.3219 25.3431C19.2378 25.2719 19.1535 25.1738 19.0341 25.2184C18.879 25.2763 18.9101 25.4143 18.9101 25.5479C18.9189 39.889 18.9278 54.2257 18.9322 68.5669C18.9322 71.9597 18.9322 75.3568 18.9278 78.7496H27.9532C27.962 67.6274 27.962 56.5054 27.9665 45.3787C27.9665 45.2007 27.8735 44.9647 28.0728 44.8713C28.2809 44.7732 28.458 44.9691 28.6043 45.0894C30.2339 46.4518 31.8591 47.8232 33.4846 49.19C35.6898 51.0468 37.8953 52.9033 40.0963 54.7689C41.633 56.0734 43.1476 57.3958 44.6888 58.6959C48.0544 61.5277 51.4335 64.3415 54.7948 67.1823C55.1402 67.4716 55.2686 67.2713 55.437 67.0396C56.3536 65.7975 57.0223 64.4083 57.6645 63.0104C58.2092 61.8304 58.5813 60.5883 58.9799 59.3504C59.1348 58.8651 58.8426 58.6648 58.5679 58.4287L58.5634 58.4333Z" fill="white"/>
<path d="M83.7444 54.7556C83.7444 66.7192 83.7444 78.6873 83.7356 90.6507C83.7356 90.9223 83.9481 91.3276 83.6204 91.4566C83.328 91.5724 83.1554 91.1628 82.9385 90.9802C81.1846 89.5064 79.4353 88.0238 77.6861 86.5412C75.587 84.7603 73.5144 82.9393 71.3798 81.2028C69.5154 79.6845 67.7262 78.0817 65.8707 76.5634C65.5252 76.2829 65.5252 76.0781 65.7732 75.7442C67.3852 73.5402 68.7493 71.1893 69.8652 68.696C70.1088 68.1484 70.2196 68.1262 70.6403 68.558C71.7473 69.6845 73.0982 70.517 74.2317 71.6078C74.3248 71.697 74.4356 71.7949 74.5729 71.737C74.7455 71.6657 74.7234 71.4966 74.7234 71.3542C74.7278 70.3701 74.7322 69.3861 74.7322 68.4066C74.7322 51.8971 74.7322 35.3876 74.7278 18.8782C74.7278 17.9075 74.7278 17.9075 75.6932 17.9075C78.1467 17.9075 80.6002 17.9164 83.0535 17.8986C83.5717 17.8986 83.7621 18.05 83.7621 18.5976C83.7489 30.6548 83.7533 42.7118 83.7533 54.7733H83.7444V54.7556Z" fill="white"/>
<path d="M111.863 60.2087H133.625C137.929 60.2087 141.918 59.4939 145.587 58.0596L145.59 58.0583C149.311 56.5694 152.564 54.5058 155.345 51.8667L155.348 51.8635C158.131 49.1655 160.291 45.9797 161.829 42.3102C163.369 38.6349 164.136 34.5928 164.136 30.1892V29.256C164.136 24.9647 163.369 21.0345 161.828 17.4713C160.29 13.8587 158.129 10.7575 155.345 8.17251C152.62 5.53143 149.394 3.52345 145.671 2.14776C142.002 0.714116 137.985 0 133.625 0H111.863V60.2087ZM121.786 51.0721V9.1366H132.925C137.066 9.1366 140.701 10.0006 143.84 11.7162L143.848 11.7203C147.049 13.383 149.528 15.7057 151.296 18.6911L151.299 18.6961C153.12 21.6762 154.038 25.191 154.038 29.256V30.1892C154.038 34.3114 153.12 37.9431 151.294 41.0969L151.291 41.1018C149.521 44.2573 147.04 46.7191 143.84 48.4923C140.641 50.2091 137.006 51.0721 132.925 51.0721H121.786ZM162.368 60.2087H172.614L178.388 44.8532H204.36L210.007 59.9417L210.106 60.2087H251.229V51.3266H240.73V8.88208H251.229V0H220.22V8.88208H230.72V51.3266H220.22V59.8611L220.137 59.6499L197.301 0.263647L197.199 0H185.522L185.42 0.263647L162.368 60.2087ZM191.402 10.2352L201.224 36.48H181.535L191.402 10.2352ZM260.393 57.3735L260.403 57.3824C262.41 59.2701 264.906 60.2087 267.86 60.2087H295.921V51.0721H270.922C269.915 51.0721 269.086 50.7421 268.408 50.0852C267.732 49.429 267.396 48.6312 267.396 47.6657V0H257.473V50.126C257.473 53.0004 258.446 55.4257 260.393 57.3735ZM327.622 0.189273L311.25 25.7212L294.679 0H283.816L284.22 0.633234L306.294 35.0607V60.2087H316.216V35.0607L338.694 0H327.742L327.622 0.189273Z" fill="white"/>
<path d="M111.863 103.151V69.0921H116.671L136.157 97.3614L133.981 97.7508V69.0921H139.244V103.151H134.487L115.102 75.0769L117.127 74.7362V103.151H111.863Z" fill="white"/>
<path d="M155.153 103.638C152.724 103.638 150.581 103.135 148.726 102.13C146.87 101.092 145.419 99.6645 144.373 97.848C143.327 96.0314 142.804 93.9231 142.804 91.5227V91.0361C142.804 88.7654 143.276 86.7381 144.221 84.9541C145.2 83.17 146.549 81.7589 148.27 80.721C150.025 79.6505 152.049 79.1154 154.343 79.1154C156.773 79.1154 158.831 79.683 160.518 80.8183C162.205 81.9535 163.454 83.5593 164.263 85.6352C165.074 87.6788 165.292 90.0792 164.922 92.8363H146.347V89.2358H162.34L160.113 91.1334C160.349 89.4143 160.248 87.9707 159.81 86.803C159.371 85.6029 158.679 84.6783 157.735 84.0296C156.823 83.3808 155.71 83.0564 154.394 83.0564C152.977 83.0564 151.762 83.3971 150.75 84.0783C149.772 84.7595 149.012 85.7002 148.473 86.9003C147.966 88.0681 147.713 89.4466 147.713 91.0361V91.766C147.713 93.2256 148.017 94.5394 148.624 95.7072C149.232 96.8748 150.109 97.7831 151.256 98.4318C152.403 99.0806 153.77 99.405 155.356 99.405C156.638 99.405 157.735 99.2428 158.646 98.9184C159.59 98.594 160.417 98.1237 161.125 97.5074L163.909 100.378C162.964 101.449 161.733 102.259 160.215 102.811C158.696 103.362 157.009 103.638 155.153 103.638Z" fill="white"/>
<path d="M172.45 103.151L165.667 79.6018H170.628L176.043 100.086H175.03L180.952 79.6018H186.165L192.086 100.038H191.075L196.541 79.6018H201.449L194.668 103.151H188.949L182.723 80.8669H184.393L178.169 103.151H172.45Z" fill="white"/>
<path d="M210.922 103.589C209.032 103.589 207.278 103.33 205.658 102.811C204.072 102.259 202.755 101.562 201.711 100.719L203.887 97.4587C204.865 98.1399 205.961 98.7076 207.176 99.1618C208.39 99.6159 209.639 99.843 210.922 99.843C212.27 99.843 213.351 99.5672 214.16 99.0157C215.004 98.4318 215.427 97.6696 215.427 96.7289C215.427 95.8855 215.123 95.2529 214.515 94.8312C213.907 94.3772 213.114 94.0204 212.136 93.7609C211.191 93.4689 210.162 93.1933 209.049 92.9338C207.969 92.6743 206.941 92.3173 205.961 91.8633C205.017 91.3766 204.224 90.7117 203.583 89.8683C202.975 88.9926 202.671 87.8248 202.671 86.3651C202.671 84.2242 203.498 82.4888 205.152 81.1589C206.839 79.7965 209.082 79.1154 211.882 79.1154C213.469 79.1154 214.953 79.3262 216.337 79.7479C217.754 80.1694 219.002 80.7533 220.082 81.4994L217.855 84.7108C217.011 84.1269 216.068 83.6728 215.021 83.3484C214.008 82.9917 212.946 82.8132 211.832 82.8132C210.516 82.8132 209.454 83.1051 208.644 83.689C207.833 84.2729 207.43 85.019 207.43 85.9271C207.43 86.7381 207.734 87.3707 208.34 87.8248C208.981 88.279 209.791 88.6358 210.77 88.8953C211.781 89.1548 212.827 89.4305 213.907 89.7224C215.021 90.0143 216.066 90.4036 217.046 90.8902C218.024 91.3766 218.833 92.0578 219.474 92.9338C220.115 93.777 220.437 94.9448 220.437 96.437C220.437 97.8318 220.014 99.0643 219.172 100.135C218.361 101.205 217.249 102.049 215.83 102.665C214.414 103.281 212.777 103.589 210.922 103.589Z" fill="white"/>
</svg>
