<svg width="40" height="41" viewBox="0 0 40 41" fill="none" xmlns="http://www.w3.org/2000/svg">
<path d="M38.5917 0.00175527C37.3775 -0.00175527 36.1634 0.00175527 34.9493 0.00175527C23.9928 0 13.0379 0 2.08135 0C1.46735 0 0.853355 0.0280843 0.239355 0.019308C0.0364236 0.0175527 0 0.0860081 0 0.270312C0.00346891 11.6129 0.00520336 22.9572 0.00520336 34.2997C0.00520336 34.6508 0.0104067 35.0019 0.00520336 35.3529C0.00520336 35.4267 0.0173446 35.4758 0.0468303 35.5109H11.3971C11.4092 35.5109 11.4214 35.5144 11.4318 35.5144C12.1013 35.5179 12.7708 35.5197 13.4403 35.5144C15.8755 35.4916 18.1407 34.8246 20.2688 33.6468C21.424 33.0079 22.482 32.2373 23.4169 31.2982C25.0854 29.6237 26.3169 27.6701 27.0853 25.4163C27.4877 24.235 27.7357 23.0204 27.8467 21.7811C27.9369 20.7842 27.9022 19.7837 27.7721 18.7849C27.6126 17.5545 27.3194 16.3626 26.8754 15.2059C26.336 13.8052 25.5937 12.5256 24.6848 11.3391C23.5296 9.83305 22.1161 8.63064 20.503 7.66702C19.105 6.82979 17.5926 6.28036 16.0004 5.96091C14.9649 5.75378 13.9207 5.6432 12.8627 5.64671C10.1743 5.65549 7.48593 5.64847 4.79751 5.64144C4.61539 5.64144 4.60325 5.72219 4.60325 5.86788C4.60845 6.91403 4.61365 7.96015 4.60325 9.00457C4.60151 9.22221 4.66916 9.27487 4.87382 9.27487C7.64896 9.26962 10.4241 9.27137 13.1992 9.27487C14.8556 9.27838 16.4305 9.63467 17.9325 10.3596C19.6063 11.167 20.9765 12.3413 22.097 13.8175C23.1532 15.2095 23.8245 16.7822 24.1246 18.5128C24.3882 20.0259 24.3986 21.5424 24.0586 23.0415C23.5851 25.139 22.626 26.9733 21.1222 28.5196C19.7243 29.9572 18.0748 30.949 16.1703 31.5036C15.2407 31.7757 14.2815 31.9249 13.3085 31.9337C12.6078 31.9389 11.907 31.9284 11.2063 31.9389C11.1959 31.9389 11.1872 31.9389 11.1768 31.9389H6.92739C6.92739 31.9389 6.92047 31.9389 6.91701 31.9372C5.9197 31.9372 4.92412 31.9372 3.92681 31.9372C3.62501 31.9372 3.62328 31.9372 3.62328 31.6353C3.62328 22.4201 3.62328 13.2067 3.62328 3.99149C3.62328 3.65097 3.62328 3.65097 3.95282 3.65097C12.835 3.65097 21.7154 3.65097 30.5976 3.65272C32.3198 3.65272 34.0404 3.65448 35.7628 3.65097L39.3496 0.0175527C39.0964 0.0105316 38.8431 0.00351055 38.5917 0.00175527Z" fill="white"/>
<path d="M36.4253 4.21791C36.4236 4.78486 36.4253 5.35182 36.4253 5.91877C36.4253 10.7897 36.4253 15.6605 36.4253 20.5314C36.4253 25.9587 36.4253 31.3842 36.4253 36.8116C36.4253 37.375 36.4236 37.375 35.8564 37.375C27.727 37.375 19.5959 37.375 11.4665 37.375C11.3659 37.375 11.2636 37.3697 11.163 37.375C11.0017 37.3856 10.9462 37.3118 10.9479 37.1538C10.9514 36.8993 10.9531 36.6448 10.9531 36.3903H7.41653C7.41134 37.8524 7.4148 39.3128 7.40615 40.7749C7.40615 40.9733 7.47549 41.0101 7.64723 40.9979C7.94899 40.9751 8.25255 40.9592 8.5561 40.9592C18.8691 40.9575 29.1823 40.9575 39.4936 40.9575C39.5664 40.9575 39.6376 40.9575 39.7104 40.961C39.9965 40.9803 39.9965 40.9803 39.9965 40.6749V20.5332H40C40 14.1563 40 7.77759 40 1.4007C40 1.1339 40 0.867098 40 0.600295L36.4236 4.21967L36.4253 4.21791Z" fill="white"/>
<path d="M22.9364 23.0362C22.2097 22.4131 21.4795 21.7917 20.751 21.1686C19.8249 20.3769 18.9004 19.5818 17.969 18.7937C17.0706 18.0337 16.153 17.2999 15.2684 16.5241C14.4393 15.7957 13.5756 15.1129 12.7552 14.3722C12.2331 13.9 11.6694 13.4752 11.1335 13.0206C10.1986 12.2272 9.27068 11.4233 8.33925 10.6282C8.08606 10.4105 7.82416 10.2034 7.56745 9.99102C7.53451 9.96294 7.50151 9.92429 7.45473 9.94187C7.39398 9.96469 7.40615 10.0191 7.40615 10.0718C7.40961 15.7255 7.41307 21.3774 7.4148 27.0312C7.4148 28.3687 7.4148 29.708 7.41307 31.0455H10.9479C10.9514 26.6608 10.9514 22.2762 10.9531 17.8897C10.9531 17.8195 10.9167 17.7265 10.9947 17.6896C11.0763 17.651 11.1456 17.7282 11.2029 17.7756C11.8411 18.3127 12.4777 18.8534 13.1143 19.3922C13.978 20.1242 14.8417 20.8561 15.7037 21.5916C16.3056 22.1059 16.8988 22.6272 17.5024 23.1397C18.8206 24.2561 20.144 25.3654 21.4604 26.4853C21.5957 26.5994 21.646 26.5204 21.712 26.4291C22.0709 25.9394 22.3328 25.3917 22.5844 24.8406C22.7977 24.3755 22.9434 23.8858 23.0995 23.3978C23.1602 23.2064 23.0458 23.1275 22.9382 23.0344L22.9364 23.0362Z" fill="white"/>
<path d="M32.7986 21.5863C32.7986 26.3028 32.7986 31.0209 32.7951 35.7373C32.7951 35.8444 32.8784 36.0042 32.75 36.055C32.6355 36.1007 32.5679 35.9392 32.4829 35.8672C31.796 35.2862 31.1109 34.7017 30.4258 34.1172C29.6037 33.4151 28.792 32.6972 27.956 32.0126C27.2258 31.4141 26.525 30.7822 25.7983 30.1836C25.663 30.0731 25.663 29.9923 25.7601 29.8607C26.3915 28.9918 26.9257 28.065 27.3628 27.0821C27.4582 26.8662 27.5016 26.8574 27.6663 27.0277C28.0999 27.4718 28.629 27.8 29.0729 28.23C29.1094 28.2652 29.1528 28.3037 29.2065 28.2809C29.2741 28.2528 29.2655 28.1862 29.2655 28.13C29.2672 27.7421 29.269 27.3541 29.269 26.968C29.269 20.4594 29.269 13.9509 29.2672 7.44238C29.2672 7.05969 29.2672 7.05969 29.6453 7.05969C30.6062 7.05969 31.5671 7.06319 32.528 7.05619C32.7309 7.05619 32.8055 7.11585 32.8055 7.33174C32.8003 12.0851 32.8021 16.8383 32.8021 21.5933H32.7986V21.5863Z" fill="white"/>
</svg>
